<svg xmlns="http://www.w3.org/2000/svg" xmlns:xlink="http://www.w3.org/1999/xlink" viewBox="0 0 53 66" fill="#fff" fill-rule="evenodd" stroke="#000" stroke-linecap="round" stroke-linejoin="round"><use xlink:href="#A" x=".5" y=".5"/><symbol id="A" overflow="visible"><path d="M0 60.898a7.32 7.32 0 0 1 7.669-3.46c6.99.762 14.043.72 21.023-.126a28.2 28.2 0 0 1 6.913-.053c3.566.407 7.16.577 10.743.882a24.06 24.06 0 0 1 3.294.464c.968.14 1.745.87 1.948 1.826a2.28 2.28 0 0 1-1.297 2.566 6.78 6.78 0 0 1-3.1.895c-3.85-.085-7.697-.472-11.548-.54a86.24 86.24 0 0 0-9.987.285c-4.596.457-9.224.486-13.825.085-2.55-.224-5.132-.08-7.697-.126-1.573.215-3.142-.42-4.123-1.667zm51.483-45.603l.382 8.738c.063 1.885.003 3.77-.18 5.648a41.89 41.89 0 0 0 0 11.792c.24 1.695.187 3.418-.155 5.095-.166 2.48-2.36 4.325-4.83 4.066-2.82-.154-5.618-.563-8.364-1.22-2-.617-3.704-1.943-4.794-3.73-1.13-1.615-2.17-3.292-3.115-5.022a40.75 40.75 0 0 0-5.957-8.364c-1.364-1.644-2.6-3.39-3.7-5.22-.24-.455-.5-.893-.813-1.3-.87-1.155-2.686-.8-3.074.58a6.21 6.21 0 0 0-.321 2.033l-.227 11.8a5.77 5.77 0 0 1-.443 1.992 5.47 5.47 0 0 0-.118 4.928 1.98 1.98 0 0 1-1.423 2.846c-2.92 1.12-6.17 1.03-9.023-.252-1.554-.632-2.56-2.153-2.533-3.83-.037-2.846-.146-5.664-.305-8.5a5.53 5.53 0 0 1 1.805-4.692 7.7 7.7 0 0 0 1.435-1.8 3.4 3.4 0 0 0-.134-4.091 16.08 16.08 0 0 1-3.127-11.878c.2-2.814.138-5.648.2-8.47 0-.687-.045-1.378.02-2.058C2.353 2.52 4.14.948 5.97 1.522A17.74 17.74 0 0 0 12.247.351c2.08-.96 4.532.13 5.213 2.318.325.7.573 1.43.862 2.147a4.3 4.3 0 0 0 2.598 2.688 6.15 6.15 0 0 1 3.062 2.635l8.072 11.63a20.18 20.18 0 0 0 2.846 3.314c1.15 1.045 2.106.72 2.293-.866a37.56 37.56 0 0 0 .342-7.425 83.35 83.35 0 0 1 .13-11.548c-.532-2.82 2.093-5.2 4.85-4.42l2.846.163a5.49 5.49 0 0 1 5.725 4.558 14.92 14.92 0 0 1 .512 3.294c.077 2.143.024 4.3.024 6.437z" stroke="none" fill="#000" fill-rule="nonzero"/></symbol></svg>